<?xml version="1.0" encoding="UTF-8"?>
<!DOCTYPE svg PUBLIC "-//W3C//DTD SVG 1.1//EN" "http://www.w3.org/Graphics/SVG/1.1/DTD/svg11.dtd">
<!-- Creator: CorelDRAW -->
<svg xmlns="http://www.w3.org/2000/svg" xml:space="preserve" width="4.86466in" height="4.90274in" version="1.1" style="shape-rendering:geometricPrecision; text-rendering:geometricPrecision; image-rendering:optimizeQuality; fill-rule:evenodd; clip-rule:evenodd"
viewBox="0 0 4876.6 4914.78"
 xmlns:xlink="http://www.w3.org/1999/xlink"
 xmlns:xodm="http://www.corel.com/coreldraw/odm/2003">
 <defs>
  <style type="text/css">
   <![CDATA[
    .str5 {stroke:#FEFEFE;stroke-width:98.49;stroke-miterlimit:2.61313}
    .str0 {stroke:#FEFEFE;stroke-width:98.49;stroke-linejoin:round;stroke-miterlimit:2.61313}
    .str4 {stroke:#FEFEFE;stroke-width:98.49;stroke-linejoin:round;stroke-miterlimit:2.61313}
    .str3 {stroke:#FEFEFE;stroke-width:98.49;stroke-linejoin:round;stroke-miterlimit:2.61313}
    .str1 {stroke:#FEFEFE;stroke-width:98.49;stroke-linejoin:round;stroke-miterlimit:2.61313}
    .str2 {stroke:#FEFEFE;stroke-width:98.49;stroke-linejoin:round;stroke-miterlimit:2.61313}
    .fil3 {fill:none}
    .fil0 {fill:#FEFEFE}
    .fil1 {fill:#2B2A2A}
    .fil2 {fill:#A62E2E}
    .fil6 {fill:#FEFEFE;fill-rule:nonzero}
    .fil4 {fill:#FEFEFE;fill-rule:nonzero}
    .fil5 {fill:#2B2A2A;fill-rule:nonzero}
   ]]>
  </style>
    <clipPath id="id0">
     <path d="M1087.66 1757.97c-85.6,1164.55 187.19,2227.01 1361.94,2681.93 489.12,-205.16 882.24,-526.85 1122.08,-1006.94 256.09,-512.63 292.67,-1115.39 239.56,-1679.74 -502.74,-32.51 -973.22,-372.61 -1357.02,-687.33 -379.25,306.58 -870.53,658.89 -1366.56,692.08z"/>
    </clipPath>
 </defs>
 <g id="Layer_x0020_1">
  <metadata id="CorelCorpID_0Corel-Layer"/>
  <rect class="fil0" x="-0" width="4876.6" height="4914.78" rx="754.52" ry="753.68"/>
  <g id="_2263269231984">
   <path class="fil1" d="M984.64 1648.5c450.15,12.89 920.16,-275.53 1470.07,-727.01 438.4,364.88 938.14,733.66 1457.42,722.39 166.04,1474.64 -320.7,2457.24 -1460.82,2915.98 -1160.36,-428.17 -1599.28,-1440.91 -1466.67,-2911.36z"/>
   <path class="fil2" d="M1087.66 1757.97c-85.6,1164.55 187.19,2227.01 1361.94,2681.93 489.12,-205.16 882.24,-526.85 1122.08,-1006.94 256.09,-512.63 292.67,-1115.39 239.56,-1679.74 -502.74,-32.51 -973.22,-372.61 -1357.02,-687.33 -379.25,306.58 -870.53,658.89 -1366.56,692.08z"/>
   <g style="clip-path:url(#id0)">
    <g>
     <path id="_1" class="fil0" d="M3920.99 1643.89c-519.27,11.27 -1019.02,-357.51 -1457.42,-722.39 -3.58,2.94 -7.16,5.88 -10.74,8.81l0 3626.85c2.44,0.9 4.89,1.81 7.34,2.72 1140.12,-458.74 1626.86,-1441.34 1460.82,-2915.98z"/>
    </g>
   </g>
   <path class="fil3" d="M1087.66 1757.97c-85.6,1164.55 187.19,2227.01 1361.94,2681.93 489.12,-205.16 882.24,-526.85 1122.08,-1006.94 256.09,-512.63 292.67,-1115.39 239.56,-1679.74 -502.74,-32.51 -973.22,-372.61 -1357.02,-687.33 -379.25,306.58 -870.53,658.89 -1366.56,692.08z"/>
   <g>
    <polygon class="fil3 str0" points="474.39,3742.1 1272.1,3742.1 1272.1,4258.99 474.39,4258.99 599.13,4000 "/>
    <polygon id="_1_0" class="fil1" points="474.39,3742.1 1272.1,3742.1 1272.1,4258.99 474.39,4258.99 599.13,4000 "/>
   </g>
   <g>
    <polygon class="fil3 str1" points="1272.1,3737.67 946.94,3737.67 946.94,4060.05 1272.1,4254.56 "/>
    <polygon id="_1_1" class="fil1" points="1272.1,3737.67 946.94,3737.67 946.94,4060.05 1272.1,4254.56 "/>
   </g>
   <g>
    <polygon class="fil3 str2" points="4406.28,3742.1 3608.57,3742.1 3608.57,4258.99 4406.28,4258.99 4281.54,4000 "/>
    <polygon id="_1_2" class="fil1" points="4406.28,3742.1 3608.57,3742.1 3608.57,4258.99 4406.28,4258.99 4281.54,4000 "/>
   </g>
   <g>
    <polygon class="fil3 str3" points="3608.57,3737.67 3933.73,3737.67 3933.73,4060.05 3608.57,4254.56 "/>
    <polygon id="_1_3" class="fil1" points="3608.57,3737.67 3933.73,3737.67 3933.73,4060.05 3608.57,4254.56 "/>
   </g>
   <g>
    <polygon class="fil3 str4" points="948.51,3545.59 3933.74,3545.59 3933.74,4062.47 948.51,4062.47 "/>
    <polygon id="_1_4" class="fil1" points="948.51,3545.59 3933.74,3545.59 3933.74,4062.47 948.51,4062.47 "/>
   </g>
   <g>
    <path class="fil3 str5" d="M1340.41 2380.68c152.16,12.67 304.32,46.29 456.49,95.35 157.2,-42.92 314.41,-80.49 471.62,-102.16 0,202.52 0,411.85 0,614.37 -176.99,-36.15 -334.59,-15.09 -464.18,88.44 -1.63,1.3 -1.1,1.33 -2.73,0.08 -108.05,-83.72 -251.4,-126.31 -458.2,-89.06 -0.99,0.18 -2,0.36 -3,0.54l0 -3.68 0 -603.88z"/>
    <path id="_1_5" class="fil2" d="M1340.41 2380.68c152.16,12.67 304.32,46.29 456.49,95.35 157.2,-42.92 314.41,-80.49 471.62,-102.16 0,202.52 0,411.85 0,614.37 -176.99,-36.15 -334.59,-15.09 -464.18,88.44 -1.63,1.3 -1.1,1.33 -2.73,0.08 -108.05,-83.72 -251.4,-126.31 -458.2,-89.06 -0.99,0.18 -2,0.36 -3,0.54l0 -3.68 0 -603.88z"/>
   </g>
   <g>
    <path class="fil4" d="M1806.56 2418.16l-98.49 -0.47 19 40.96 -10.69 -8.65 -10.52 -8.38 -10.34 -8.11 -10.16 -7.82 -10 -7.54 -9.84 -7.27 -9.65 -6.98 -9.49 -6.69 -9.33 -6.41 -9.15 -6.12 -8.99 -5.83 -8.82 -5.54 -8.65 -5.25 -8.49 -4.95 -8.32 -4.66 -8.16 -4.37 -7.99 -4.08 -7.82 -3.78 -7.65 -3.5 -7.49 -3.2 -7.33 -2.92 -7.14 -2.64 -6.99 -2.36 -6.82 -2.08 -6.66 -1.81 -6.51 -1.54 -6.36 -1.28 -6.2 -1.03 -6.07 -0.78 -5.93 -0.53 -5.81 -0.29 -5.7 -0.06 -0.91 -103.21 9.5 0.1 9.52 0.48 9.53 0.86 9.54 1.22 9.54 1.58 9.54 1.92 9.54 2.26 9.56 2.59 9.56 2.92 9.57 3.22 9.6 3.54 9.61 3.83 9.64 4.13 9.67 4.41 9.72 4.7 9.76 4.98 9.81 5.25 9.87 5.53 9.93 5.8 10 6.06 10.08 6.33 10.15 6.59 10.25 6.85 10.33 7.1 10.44 7.36 10.55 7.62 10.64 7.86 10.76 8.12 10.89 8.38 11 8.62 11.13 8.86 11.26 9.12 19 40.96zm-19 -40.96l19.11 15.59 -0.11 25.38 -19 -40.96zm-81.74 561.61l2.26 -521.11 98.49 0.47 -2.26 521.11 -66.02 48.29 -32.47 -48.75zm98.49 0.47l-0.32 73.23 -65.7 -24.94 66.02 -48.29zm-396.34 -53.42l98.49 0.32 -52.59 -51.65 10.25 -0.65 10.21 -0.47 10.15 -0.3 10.12 -0.13 10.08 0.04 10.04 0.21 10 0.38 9.97 0.54 9.96 0.71 9.92 0.86 9.88 1.03 9.87 1.18 9.87 1.33 9.83 1.49 9.82 1.63 9.82 1.78 9.8 1.92 9.8 2.06 9.79 2.2 9.8 2.34 9.8 2.47 9.8 2.6 9.83 2.74 9.84 2.86 9.85 2.98 9.87 3.1 9.91 3.23 9.93 3.34 9.98 3.46 10.01 3.57 10.05 3.68 10.1 3.79 -33.55 97.04 -9.4 -3.53 -9.33 -3.41 -9.24 -3.3 -9.15 -3.17 -9.08 -3.05 -9 -2.93 -8.94 -2.81 -8.87 -2.68 -8.81 -2.57 -8.75 -2.44 -8.7 -2.3 -8.64 -2.18 -8.6 -2.05 -8.57 -1.93 -8.52 -1.8 -8.5 -1.67 -8.45 -1.53 -8.45 -1.41 -8.43 -1.27 -8.4 -1.14 -8.41 -1 -8.41 -0.87 -8.41 -0.74 -8.4 -0.6 -8.43 -0.45 -8.45 -0.32 -8.47 -0.17 -8.51 -0.04 -8.53 0.11 -8.59 0.25 -8.62 0.4 -8.68 0.54 -52.59 -51.65zm52.59 51.65l-52.75 3.76 0.17 -55.41 52.59 51.65zm47.7 -654.91l-1.8 603.58 -98.49 -0.32 1.8 -603.58 98.49 0.32 0 0zm-41.16 -63.59l0.91 103.21 -0.04 0 -1.03 0.01 -0.78 0.01 -0.57 0.01 -0.32 0 -0.04 0 0.31 -0.02 0.74 -0.06 1.44 -0.16 2.09 -0.34 2.9 -0.66 4.08 -1.29 4.76 -2.09 5.55 -3.34 5.88 -4.87 5.2 -5.95 4.09 -6.52 2.83 -6.44 1.64 -5.54 0.77 -4 0.34 -2.82 0.14 -2.24 0.03 -1.53 -0 -0.57 -0.01 -0.36 0.05 1.05 0.07 1.74 0.06 1.5 0.04 1.5 0.03 1.59 0 1.76 -98.49 -0.32 -0 -0.43 -0 -0.44 -0.01 -0.41 -0.01 -0.27 -0.07 -1.44 -0.07 -1.68 -0.04 -1.55 -0.02 -1.67 0.04 -2.52 0.2 -3.14 0.43 -3.63 0.9 -4.72 1.83 -6.19 3.08 -7.01 4.41 -7.03 5.59 -6.39 6.34 -5.25 6.09 -3.67 5.39 -2.37 4.81 -1.52 3.73 -0.84 3.02 -0.49 2.48 -0.27 1.9 -0.14 1.59 -0.08 1.38 -0.04 1.22 -0.03 1.12 -0.02 1.06 -0.01 0.96 -0.01 -0.04 0z"/>
    <path id="_1_6" class="fil2" d="M1467.54 2270.6c80.72,-0.78 171.85,51.18 289.77,147.33l-2.26 521.11c-104.41,-39.64 -196.63,-60.25 -297.85,-53.03l1.8 -603.58c0.04,-12.02 -2.5,-11.73 8.54,-11.82z"/>
   </g>
   <g>
    <path class="fil4" d="M1796.72 2418.16l19 -40.96 11.26 -9.12 11.13 -8.86 11 -8.62 10.88 -8.37 10.76 -8.12 10.64 -7.86 10.55 -7.62 10.44 -7.36 10.33 -7.1 10.25 -6.85 10.16 -6.59 10.07 -6.32 10 -6.06 9.93 -5.8 9.87 -5.53 9.8 -5.25 9.75 -4.98 9.72 -4.71 9.68 -4.42 9.63 -4.12 9.61 -3.84 9.6 -3.54 9.57 -3.22 9.57 -2.92 9.55 -2.59 9.55 -2.26 9.54 -1.92 9.54 -1.58 9.54 -1.22 9.53 -0.86 9.52 -0.48 9.5 -0.1 -0.91 103.21 -5.7 0.06 -5.81 0.29 -5.93 0.53 -6.06 0.78 -6.21 1.03 -6.36 1.28 -6.51 1.54 -6.66 1.81 -6.83 2.08 -6.99 2.36 -7.15 2.64 -7.33 2.92 -7.49 3.21 -7.66 3.49 -7.81 3.78 -7.99 4.08 -8.16 4.37 -8.32 4.66 -8.48 4.95 -8.66 5.25 -8.82 5.54 -8.99 5.83 -9.15 6.12 -9.33 6.41 -9.48 6.69 -9.65 6.98 -9.84 7.27 -10 7.54 -10.16 7.82 -10.35 8.11 -10.52 8.38 -10.69 8.65 19 -40.96 -98.49 0.47zm0 0l-0.11 -25.38 19.11 -15.59 -19 40.96zm100.75 520.65l-32.47 48.75 -66.02 -48.29 -2.26 -521.11 98.49 -0.47 2.26 521.11zm-32.47 48.75l-65.7 24.94 -0.32 -73.23 66.02 48.29zm330.32 -101.71l-52.59 51.65 -8.68 -0.54 -8.62 -0.4 -8.59 -0.25 -8.54 -0.11 -8.5 0.04 -8.47 0.17 -8.45 0.32 -8.43 0.45 -8.4 0.6 -8.41 0.74 -8.42 0.87 -8.41 1 -8.4 1.14 -8.43 1.27 -8.45 1.41 -8.46 1.53 -8.5 1.67 -8.52 1.8 -8.56 1.93 -8.6 2.05 -8.65 2.18 -8.7 2.3 -8.74 2.44 -8.81 2.57 -8.87 2.68 -8.94 2.81 -9.01 2.93 -9.08 3.05 -9.15 3.17 -9.23 3.29 -9.32 3.42 -9.4 3.53 -33.55 -97.04 10.1 -3.79 10.05 -3.68 10.01 -3.58 9.98 -3.46 9.94 -3.34 9.91 -3.22 9.87 -3.1 9.85 -2.98 9.83 -2.86 9.83 -2.74 9.81 -2.6 9.8 -2.47 9.8 -2.34 9.79 -2.2 9.8 -2.06 9.8 -1.92 9.82 -1.78 9.82 -1.63 9.83 -1.49 9.87 -1.33 9.87 -1.18 9.89 -1.03 9.92 -0.86 9.96 -0.71 9.97 -0.54 10 -0.38 10.04 -0.21 10.08 -0.04 10.12 0.13 10.15 0.3 10.21 0.47 10.25 0.65 -52.59 51.65 98.49 -0.32zm0 0l0.17 55.41 -52.75 -3.76 52.59 -51.65zm-100.29 -603.26l0 -0 98.49 -0.32 1.8 603.58 -98.49 0.32 -1.8 -603.58zm41.16 -63.59l-0.04 0 0.96 0.01 1.06 0.01 1.12 0.02 1.22 0.03 1.38 0.04 1.59 0.08 1.9 0.14 2.48 0.27 3.02 0.49 3.73 0.84 4.81 1.52 5.39 2.37 6.09 3.67 6.34 5.25 5.59 6.39 4.41 7.03 3.08 7.01 1.83 6.19 0.9 4.72 0.43 3.63 0.2 3.14 0.04 2.52 -0.02 1.67 -0.04 1.55 -0.07 1.68 -0.07 1.44 -0.01 0.27 -0.01 0.41 -0 0.44 -0 0.43 -98.49 0.32 0 -1.76 0.03 -1.59 0.04 -1.5 0.06 -1.5 0.07 -1.74 0.05 -1.05 -0.01 0.36 -0 0.57 0.03 1.53 0.14 2.24 0.34 2.82 0.77 4 1.64 5.54 2.83 6.44 4.09 6.52 5.2 5.95 5.88 4.87 5.55 3.34 4.76 2.09 4.08 1.29 2.9 0.66 2.09 0.34 1.44 0.16 0.74 0.06 0.31 0.02 -0.04 -0 -0.32 -0 -0.57 -0.01 -0.78 -0.01 -1.03 -0.01 -0.04 0 0.91 -103.21z"/>
    <path id="_1_7" class="fil2" d="M2135.73 2270.6c-80.72,-0.78 -171.85,51.18 -289.77,147.33l2.26 521.11c104.41,-39.64 196.63,-60.25 297.85,-53.03l-1.8 -603.58c-0.04,-12.02 2.5,-11.73 -8.54,-11.82z"/>
   </g>
   <g>
    <path class="fil5" d="M3508.13 2436.03l-10.67 6.16 0 0 -3.56 -6.05 -3.66 -5.99 -3.75 -5.92 -3.84 -5.85 -3.94 -5.79 -4.03 -5.71 -4.12 -5.65 -4.21 -5.57 -4.3 -5.5 -4.38 -5.43 -4.47 -5.36 -4.55 -5.28 -4.64 -5.2 -4.72 -5.13 -4.8 -5.04 -4.89 -4.97 -4.96 -4.89 -5.05 -4.8 -5.13 -4.72 -5.2 -4.64 -5.28 -4.55 -5.36 -4.47 -5.43 -4.38 -5.5 -4.3 -5.57 -4.21 -5.65 -4.12 -5.71 -4.03 -5.79 -3.94 -5.85 -3.84 -5.93 -3.75 -5.99 -3.66 -6.05 -3.56 6.17 -10.66 6.23 3.67 6.16 3.76 6.09 3.86 6.03 3.96 5.95 4.05 5.88 4.15 5.81 4.24 5.74 4.33 5.66 4.42 5.58 4.51 5.51 4.6 5.43 4.69 5.35 4.78 5.27 4.86 5.2 4.95 5.11 5.02 5.03 5.11 4.95 5.19 4.86 5.28 4.78 5.35 4.68 5.43 4.6 5.51 4.51 5.59 4.42 5.66 4.33 5.74 4.24 5.81 4.15 5.88 4.05 5.95 3.95 6.03 3.86 6.09 3.76 6.16 3.67 6.23 0 0zm-160.84 600.25l-6.16 -10.66 0 0 18.76 -11.47 17.96 -12.27 17.16 -13.04 16.34 -13.77 15.5 -14.46 14.67 -15.12 13.83 -15.74 12.98 -16.32 12.1 -16.86 11.23 -17.37 10.34 -17.85 9.45 -18.28 8.55 -18.68 7.63 -19.05 6.71 -19.38 5.78 -19.66 4.83 -19.92 3.88 -20.14 2.92 -20.31 1.94 -20.45 0.96 -20.56 -0.04 -20.63 -1.04 -20.66 -2.05 -20.66 -3.07 -20.62 -4.11 -20.54 -5.15 -20.43 -6.2 -20.27 -7.26 -20.1 -8.34 -19.86 -9.42 -19.61 -10.51 -19.32 10.67 -6.16 10.81 19.86 9.69 20.17 8.58 20.44 7.47 20.67 6.38 20.87 5.3 21.02 4.23 21.14 3.16 21.22 2.11 21.26 1.07 21.26 0.04 21.23 -0.99 21.15 -1.99 21.04 -3 20.9 -3.99 20.71 -4.97 20.49 -5.94 20.23 -6.9 19.93 -7.85 19.6 -8.79 19.22 -9.73 18.81 -10.64 18.36 -11.56 17.88 -12.46 17.35 -13.35 16.79 -14.23 16.19 -15.1 15.56 -15.96 14.88 -16.81 14.17 -17.65 13.41 -18.48 12.63 -19.29 11.8 0 0zm-600.25 -160.83l10.67 -6.16 0 0 11.47 18.76 12.28 17.96 13.04 17.16 13.77 16.34 14.46 15.51 15.12 14.67 15.74 13.83 16.32 12.97 16.86 12.11 17.38 11.23 17.85 10.35 18.29 9.45 18.68 8.55 19.05 7.63 19.38 6.71 19.67 5.77 19.91 4.83 20.14 3.88 20.31 2.92 20.45 1.94 20.56 0.96 20.63 -0.04 20.66 -1.04 20.66 -2.05 20.62 -3.07 20.54 -4.11 20.43 -5.15 20.28 -6.2 20.09 -7.26 19.87 -8.34 19.61 -9.42 19.32 -10.51 6.16 10.66 -19.86 10.81 -20.18 9.69 -20.44 8.58 -20.67 7.47 -20.87 6.38 -21.02 5.3 -21.14 4.23 -21.22 3.16 -21.26 2.12 -21.26 1.07 -21.23 0.04 -21.15 -0.99 -21.04 -1.99 -20.9 -3 -20.71 -3.99 -20.49 -4.97 -20.23 -5.94 -19.93 -6.9 -19.6 -7.85 -19.22 -8.79 -18.81 -9.72 -18.37 -10.64 -17.87 -11.56 -17.35 -12.46 -16.79 -13.35 -16.19 -14.23 -15.56 -15.1 -14.88 -15.96 -14.16 -16.81 -13.41 -17.65 -12.63 -18.47 -11.8 -19.29 0 0zm160.84 -600.25l6.16 10.66 -18.76 11.47 -17.96 12.27 -17.16 13.04 -16.34 13.77 -15.5 14.46 -14.67 15.12 -13.83 15.74 -12.97 16.32 -12.1 16.86 -11.23 17.37 -10.35 17.85 -9.45 18.28 -8.55 18.68 -7.63 19.05 -6.71 19.38 -5.77 19.66 -4.83 19.92 -3.88 20.14 -2.92 20.31 -1.94 20.46 -0.96 20.56 0.04 20.63 1.04 20.66 2.05 20.66 3.07 20.62 4.11 20.54 5.15 20.43 6.2 20.27 7.26 20.1 8.34 19.86 9.42 19.61 10.51 19.32 -10.67 6.16 -10.81 -19.86 -9.69 -20.17 -8.58 -20.44 -7.47 -20.67 -6.38 -20.87 -5.3 -21.02 -4.23 -21.14 -3.16 -21.21 -2.12 -21.26 -1.07 -21.26 -0.04 -21.23 0.99 -21.15 1.99 -21.05 3 -20.89 3.99 -20.71 4.97 -20.49 5.94 -20.23 6.9 -19.93 7.85 -19.6 8.79 -19.22 9.72 -18.81 10.65 -18.36 11.56 -17.88 12.46 -17.35 13.34 -16.79 14.23 -16.19 15.1 -15.56 15.96 -14.88 16.81 -14.17 17.65 -13.41 18.48 -12.63 19.29 -11.8z"/>
   </g>
   <path class="fil1" d="M3270.38 2380.45c151.39,26.69 235.31,-117.98 123.22,-219.62 -35.04,54.81 -37.93,97.83 -1.43,131.5 3.15,11.39 2.61,19.3 -4.08,23.49 -10.59,11.87 -34.82,6.31 -44.89,8.71 -35.84,8.56 -50.45,13.63 -72.81,55.91z"/>
   <path class="fil1" d="M3343.8 2432.19c143.95,53.94 252.93,-72.92 161.33,-193.36 -44.48,47.47 -55.19,89.24 -25.48,129.02 1.01,11.77 -0.96,19.45 -8.31,22.34 -12.58,9.74 -35.39,-0.17 -45.73,0.36 -36.8,1.85 -52.09,4.16 -81.81,41.64z"/>
   <path class="fil1" d="M3386.71 2501.47c125.08,89.36 263.19,-4.98 205.88,-145.01 -55.25,34.34 -76.41,71.92 -58,118.03 -2.07,11.63 -5.97,18.54 -13.81,19.43 -14.67,6.14 -34.14,-9.32 -44.27,-11.5 -36.03,-7.73 -51.39,-9.46 -89.8,19.05z"/>
   <path class="fil1" d="M3424.81 2576.39c97.69,118.69 255.51,63.31 236.4,-86.79 -62.25,18.88 -92.42,49.69 -86.57,99 -5.01,10.7 -10.56,16.36 -18.37,15.19 -15.76,2.14 -30.56,-17.84 -39.78,-22.56 -32.8,-16.79 -47.19,-22.44 -91.67,-4.85z"/>
   <path class="fil1" d="M3434.27 2650.86c55.32,143.43 222.55,140.59 251.7,-7.89 -65.03,-1.7 -103.36,18.04 -113.35,66.68 -8.13,8.58 -15.18,12.2 -22.22,8.63 -15.63,-2.94 -23.38,-26.56 -30.65,-33.95 -25.83,-26.27 -37.72,-36.16 -85.47,-33.48z"/>
   <path class="fil1" d="M3431.34 2729.22c7.32,153.55 166.92,203.54 241.36,71.81 -61.18,-22.1 -103.79,-15.44 -128.59,27.57 -10.42,5.58 -18.25,6.8 -23.81,1.19 -13.91,-7.72 -13.83,-32.58 -18.39,-41.87 -16.24,-33.07 -24.41,-46.21 -70.57,-58.7z"/>
   <path class="fil1" d="M3401.68 2804.1c-24.66,151.73 121.12,233.71 221.25,120.27 -55.27,-34.3 -98.34,-36.61 -131.51,0.33 -11.34,3.3 -19.26,2.87 -23.54,-3.77 -12.01,-10.43 -6.78,-34.73 -9.31,-44.78 -9.04,-35.72 -14.3,-50.26 -56.88,-72.05z"/>
   <path class="fil1" d="M3355.16 2870.44c-55.57,143.33 70.06,253.74 191.52,163.51 -46.97,-45.01 -88.61,-56.2 -128.72,-26.93 -11.78,0.88 -19.44,-1.19 -22.25,-8.57 -9.59,-12.69 0.57,-35.38 0.17,-45.73 -1.44,-36.82 -3.57,-52.13 -40.71,-82.28z"/>
   <path class="fil1" d="M3299.83 2916.72c-101.35,115.57 -21.21,262.38 123.83,219.27 -28.68,-58.39 -63.96,-83.18 -111.68,-69.45 -11.37,-3.22 -17.85,-7.78 -17.96,-15.68 -4.66,-15.21 12.67,-33.04 15.84,-42.9 11.28,-35.08 14.52,-50.2 -10.02,-91.25z"/>
   <path class="fil1" d="M3213.63 2957.75c-118.64,97.76 -63.17,255.54 86.91,236.35 -18.91,-62.24 -49.74,-92.39 -99.04,-86.52 -10.7,-5 -16.37,-10.55 -15.21,-18.36 -2.15,-15.76 17.82,-30.57 22.54,-39.79 16.77,-32.8 22.42,-47.2 4.8,-91.67z"/>
   <path class="fil1" d="M3352.13 2286c-73.02,-1.35 -108.55,-16.49 -112.06,-78.61 71.1,-5.11 82.02,14.58 112.06,78.61z"/>
   <path class="fil1" d="M2984.13 2380.45c-151.39,26.69 -235.31,-117.98 -123.22,-219.62 35.03,54.81 37.92,97.83 1.43,131.5 -3.15,11.39 -2.61,19.3 4.08,23.49 10.59,11.87 34.82,6.31 44.9,8.71 35.84,8.56 50.45,13.63 72.81,55.91z"/>
   <path class="fil1" d="M2910.71 2432.19c-143.95,53.94 -252.93,-72.92 -161.33,-193.36 44.48,47.47 55.19,89.24 25.48,129.02 -1.01,11.77 0.97,19.45 8.32,22.34 12.58,9.74 35.39,-0.17 45.73,0.36 36.8,1.85 52.09,4.16 81.81,41.64z"/>
   <path class="fil1" d="M2867.8 2501.47c-125.08,89.36 -263.19,-4.98 -205.88,-145.01 55.25,34.34 76.41,71.92 58,118.03 2.07,11.63 5.97,18.54 13.81,19.43 14.67,6.14 34.14,-9.32 44.26,-11.5 36.03,-7.73 51.39,-9.46 89.8,19.05z"/>
   <path class="fil1" d="M2829.7 2576.39c-97.69,118.69 -255.51,63.31 -236.39,-86.79 62.25,18.88 92.42,49.69 86.57,99 5.01,10.7 10.57,16.36 18.38,15.19 15.76,2.14 30.56,-17.84 39.78,-22.56 32.8,-16.79 47.19,-22.44 91.67,-4.85z"/>
   <path class="fil1" d="M2820.24 2650.86c-55.32,143.43 -222.55,140.59 -251.7,-7.89 65.03,-1.7 103.37,18.04 113.35,66.68 8.13,8.58 15.18,12.2 22.22,8.63 15.64,-2.94 23.39,-26.56 30.65,-33.95 25.84,-26.27 37.72,-36.16 85.48,-33.48z"/>
   <path class="fil1" d="M2823.17 2729.22c-7.32,153.55 -166.92,203.54 -241.36,71.81 61.18,-22.1 103.78,-15.44 128.59,27.57 10.42,5.58 18.25,6.8 23.81,1.19 13.91,-7.72 13.83,-32.58 18.39,-41.87 16.24,-33.07 24.4,-46.21 70.57,-58.7z"/>
   <path class="fil1" d="M2852.83 2804.1c24.66,151.73 -121.12,233.71 -221.24,120.27 55.27,-34.3 98.33,-36.61 131.51,0.33 11.34,3.3 19.26,2.87 23.54,-3.77 12.01,-10.43 6.78,-34.73 9.31,-44.78 9.04,-35.72 14.3,-50.26 56.88,-72.05z"/>
   <path class="fil1" d="M2899.34 2870.44c55.57,143.33 -70.05,253.74 -191.52,163.51 46.97,-45.01 88.61,-56.2 128.72,-26.93 11.78,0.88 19.44,-1.19 22.25,-8.57 9.59,-12.69 -0.57,-35.38 -0.17,-45.73 1.44,-36.82 3.57,-52.13 40.71,-82.28z"/>
   <path class="fil1" d="M2954.68 2916.72c101.35,115.57 21.22,262.38 -123.82,219.27 28.68,-58.39 63.96,-83.18 111.68,-69.45 11.37,-3.22 17.85,-7.78 17.96,-15.68 4.66,-15.21 -12.67,-33.04 -15.84,-42.9 -11.28,-35.08 -14.52,-50.2 10.02,-91.25z"/>
   <path class="fil1" d="M3040.88 2957.75c118.64,97.76 63.17,255.54 -86.91,236.35 18.9,-62.24 49.74,-92.39 99.04,-86.52 10.7,-5 16.37,-10.55 15.2,-18.36 2.15,-15.76 -17.82,-30.57 -22.54,-39.79 -16.77,-32.8 -22.41,-47.2 -4.8,-91.67z"/>
   <path class="fil1" d="M2902.29 2286.12c73.02,-1.35 108.55,-16.49 112.06,-78.61 -71.11,-5.11 -82.02,14.58 -112.06,78.61z"/>
   <path class="fil6" d="M1576.78 3817.87l0 62.69 146.56 0c3.37,0 5.94,-0.8 7.7,-2.34 1.77,-1.54 3.26,-4.28 4.34,-8.28l5.48 0 0 58.92 -5.48 0c-1.09,-4 -2.57,-6.74 -4.34,-8.28 -1.77,-1.54 -4.34,-2.34 -7.7,-2.34l-207.18 0 0 -5.48c3.99,-1.14 6.74,-2.57 8.28,-4.34 1.54,-1.77 2.34,-4.4 2.34,-7.88l0 -193.08c0,-3.48 -0.8,-6.11 -2.34,-7.88 -1.54,-1.77 -4.28,-3.25 -8.28,-4.34l0 -5.48 203.07 0c3.37,0 5.94,-0.8 7.71,-2.34 1.77,-1.6 3.25,-4.34 4.34,-8.28l5.48 0 0 58.92 -5.48 0c-1.09,-3.94 -2.57,-6.68 -4.34,-8.28 -1.77,-1.54 -4.34,-2.34 -7.65,-2.34l-142.5 0 0 54.12 92.49 0c3.31,0 5.88,-0.8 7.65,-2.34 1.77,-1.54 3.26,-4.28 4.34,-8.28l5.48 0 0 57.55 -5.48 0c-1.08,-3.88 -2.57,-6.62 -4.34,-8.22 -1.77,-1.6 -4.34,-2.4 -7.65,-2.4l-92.49 0z"/>
   <path id="_1_8" class="fil6" d="M1988.87 3708.94l-27.23 53.72 -4.68 -2.68c0.11,-1.09 0.17,-2 0.17,-2.68 0,-3.77 -3.25,-7.88 -9.7,-12.21 -19.87,-13.82 -43.16,-20.72 -69.94,-20.72 -11.82,0 -22.27,1.42 -31.34,4.34 -6.56,2.29 -11.88,5.6 -15.98,10.1 -4.05,4.46 -6.11,9.31 -6.11,14.56 0,8.62 5.19,14.5 15.53,17.59 5.36,1.6 16.84,3.25 34.48,5.08l26.26 2.68c15.59,1.65 28.26,3.94 37.91,6.85 9.65,2.91 18.15,6.97 25.63,12.21 7.59,5.48 13.59,12.68 17.99,21.58 4.4,8.97 6.62,18.5 6.62,28.66 0,16.04 -5.19,30.37 -15.53,42.88 -9.36,11.36 -23.92,19.81 -43.67,25.24 -14.73,4.17 -30.48,6.22 -47.33,6.22 -30.2,0 -60,-7.25 -89.46,-21.69 -6.22,-2.91 -9.93,-4.34 -11.19,-4.34 -1.42,0 -3.71,1.26 -6.85,3.65l-4.85 -2.45 24.78 -56.01 4.85 2.34c0,0.97 0,1.71 0,2.17 0,5.02 2.4,9.65 7.14,13.87 7.25,6.45 18.5,12.05 33.63,16.73 15.19,4.68 29.57,7.02 43.16,7.02 14.84,0 27.52,-2.51 37.97,-7.54 5.82,-2.79 10.45,-6.51 13.87,-11.13 3.48,-4.63 5.19,-9.48 5.19,-14.5 0,-7.59 -4.05,-13.02 -12.21,-16.27 -5.71,-2.23 -17.19,-4.28 -34.49,-6.17l-25.8 -2.68c-17.24,-1.83 -29.52,-3.54 -36.65,-5.14 -7.14,-1.6 -14.28,-4.22 -21.41,-7.82 -10.16,-5.02 -18.15,-12.56 -23.92,-22.61 -5.25,-9.08 -7.88,-19.47 -7.88,-31.17 0,-19.35 6.62,-35.34 19.92,-47.96 17.41,-16.67 43.56,-25.01 78.44,-25.01 14.56,0 28.2,1.48 40.77,4.45 12.62,2.97 28.32,8.39 47.21,16.33 6.45,2.57 10.39,3.83 11.88,3.83 2.34,0 5.02,-1.26 8.16,-3.83l4.68 2.51z"/>
   <path id="_2" class="fil6" d="M2149.36 3727.44l0 173.1c0,3.48 0.8,6.11 2.34,7.88 1.54,1.77 4.28,3.2 8.28,4.34l0 5.48 -71.25 0 0 -5.48c4,-1.14 6.74,-2.57 8.28,-4.34 1.54,-1.77 2.34,-4.4 2.34,-7.88l0 -173.1 -70.57 0c-3.31,0 -5.88,0.74 -7.65,2.28 -1.77,1.48 -3.26,4.28 -4.34,8.34l-5.48 0 0 -58.92 5.48 0c1.2,4.05 2.68,6.79 4.4,8.34 1.77,1.54 4.28,2.28 7.59,2.28l190.97 0c3.43,0 6.05,-0.74 7.82,-2.28 1.77,-1.54 3.25,-4.28 4.34,-8.34l5.48 0 0 58.92 -5.48 0c-1.09,-4.05 -2.57,-6.85 -4.34,-8.34 -1.77,-1.54 -4.4,-2.28 -7.82,-2.28l-70.39 0z"/>
   <path id="_3" class="fil6" d="M2263.88 3867.54c7.71,0 14.16,2.68 19.47,8 5.31,5.36 7.94,11.88 7.94,19.58 0,7.48 -2.68,13.88 -8.11,19.24 -5.42,5.31 -11.82,8 -19.3,8 -7.59,0 -14.04,-2.68 -19.41,-8.11 -5.31,-5.42 -7.99,-11.87 -7.99,-19.47 0,-7.48 2.62,-13.82 7.94,-19.13 5.31,-5.31 11.76,-8 19.47,-8.11z"/>
   <path id="_4" class="fil6" d="M2475.75 3877.13l139.3 0c3.43,0 6.05,-0.8 7.82,-2.34 1.77,-1.54 3.26,-4.28 4.34,-8.28l5.48 0 0 62.35 -5.48 0c-1.09,-4 -2.57,-6.74 -4.34,-8.28 -1.77,-1.54 -4.4,-2.34 -7.82,-2.34l-177.32 0c-5.71,0 -9.54,0.69 -11.53,2 -2,1.37 -3.48,4.23 -4.51,8.74l-5.48 0c-0.11,-5.6 -0.17,-9.19 -0.17,-10.73 0,-14.33 1.6,-26.09 4.85,-35.34 6.56,-18.78 18.78,-34.71 36.71,-47.79 9.25,-6.68 24.32,-14.84 45.22,-24.43l28.2 -12.91c13.19,-6.16 22.72,-12.5 28.55,-19.07 5.82,-6.51 8.73,-14.28 8.73,-23.18 0,-10.16 -3.48,-17.93 -10.45,-23.24 -6.91,-5.31 -17.01,-7.93 -30.26,-7.93 -16.1,0 -31.12,3.94 -44.99,11.87 -13.47,7.59 -20.15,15.42 -20.15,23.47 0,1.88 0.86,5.37 2.62,10.51l-3.65 3.88 -44.53 -48.01 4 -3.65c4.22,2 7.36,2.97 9.36,2.97 1.77,0 3.37,-0.4 4.68,-1.14 1.31,-0.8 4.05,-3.03 8.17,-6.68 24.49,-21.3 54.75,-31.91 90.72,-31.91 25.86,0 46.47,6.34 62,19.07 15.7,12.96 23.52,30.2 23.52,51.78 0,21.18 -7.48,38.71 -22.49,52.58 -9.93,9.02 -23.18,17.3 -39.85,24.78l-25.69 11.59c-2.68,1.31 -8.73,3.88 -18.21,7.71 -11.53,4.68 -19.64,8.51 -24.32,11.48 -4.68,2.97 -9.02,7.14 -13.02,12.5z"/>
   <path id="_5" class="fil6" d="M2768.46 3685.65c30.03,0 54.92,9.76 74.79,29.29 22.32,22.04 33.46,52.24 33.46,90.66 0,12.05 -1.66,24.26 -5.02,36.65 -3.31,12.45 -7.94,23.18 -13.7,32.37 -10.16,16.04 -23.52,28.32 -40.14,36.65 -14.73,7.36 -31.11,11.08 -49.21,11.08 -29.97,0 -54.86,-9.82 -74.62,-29.46 -9.48,-9.54 -16.84,-20.27 -22.09,-32.2 -7.59,-17.64 -11.36,-36.54 -11.36,-56.81 0,-27.23 6.22,-50.75 18.72,-70.68 9.82,-15.7 23.24,-27.92 40.14,-36.48 14.1,-7.19 30.43,-10.85 49.04,-11.07zm0 38.71c-17.7,0 -31.86,7.88 -42.3,23.63 -9.71,14.62 -14.56,32.77 -14.56,54.47 0,21.69 4.85,39.85 14.56,54.46 10.45,15.76 24.66,23.64 42.47,23.64 17.93,0 32.09,-7.88 42.48,-23.64 9.7,-14.61 14.56,-32.43 14.56,-53.44 0,-22.72 -4.85,-41.22 -14.56,-55.49 -10.39,-15.53 -24.61,-23.41 -42.65,-23.63z"/>
   <path id="_6" class="fil6" d="M2964.45 3877.13l139.3 0c3.43,0 6.05,-0.8 7.82,-2.34 1.77,-1.54 3.26,-4.28 4.34,-8.28l5.48 0 0 62.35 -5.48 0c-1.09,-4 -2.57,-6.74 -4.34,-8.28 -1.77,-1.54 -4.4,-2.34 -7.82,-2.34l-177.32 0c-5.71,0 -9.54,0.69 -11.53,2 -2,1.37 -3.48,4.23 -4.51,8.74l-5.48 0c-0.11,-5.6 -0.17,-9.19 -0.17,-10.73 0,-14.33 1.6,-26.09 4.85,-35.34 6.56,-18.78 18.78,-34.71 36.71,-47.79 9.25,-6.68 24.32,-14.84 45.22,-24.43l28.2 -12.91c13.19,-6.16 22.72,-12.5 28.55,-19.07 5.82,-6.51 8.73,-14.28 8.73,-23.18 0,-10.16 -3.48,-17.93 -10.45,-23.24 -6.91,-5.31 -17.01,-7.93 -30.26,-7.93 -16.1,0 -31.12,3.94 -44.99,11.87 -13.47,7.59 -20.15,15.42 -20.15,23.47 0,1.88 0.86,5.37 2.62,10.51l-3.65 3.88 -44.53 -48.01 4 -3.65c4.22,2 7.36,2.97 9.36,2.97 1.77,0 3.37,-0.4 4.68,-1.14 1.31,-0.8 4.05,-3.03 8.17,-6.68 24.49,-21.3 54.75,-31.91 90.72,-31.91 25.86,0 46.47,6.34 62,19.07 15.7,12.96 23.52,30.2 23.52,51.78 0,21.18 -7.48,38.71 -22.49,52.58 -9.93,9.02 -23.18,17.3 -39.85,24.78l-25.69 11.59c-2.68,1.31 -8.73,3.88 -18.21,7.71 -11.53,4.68 -19.64,8.51 -24.32,11.48 -4.68,2.97 -9.02,7.14 -13.02,12.5z"/>
   <path id="_7" class="fil6" d="M3327.78 3798.57c25.29,9.48 37.96,26.32 37.96,50.53 0,24.72 -10.85,43.5 -32.6,56.35 -19.07,11.24 -42.99,16.9 -71.65,16.9 -30.43,0 -58,-5.94 -82.78,-17.87 -10.39,-4.97 -17.07,-7.48 -20.1,-7.48 -2.8,0 -6.57,2.06 -11.36,6.16l-4.85 -2.51 26.77 -61.49 5.02 2.17c-0.57,1.31 -0.86,2.51 -0.86,3.48 0,6.05 3.08,11.53 9.19,16.56 7.94,6.51 19.24,11.82 33.97,15.99 14.73,4.17 29.52,6.28 44.36,6.28 14.04,0 26.09,-2.29 36.14,-6.91 12.73,-5.77 19.07,-14.9 19.07,-27.35 0,-10.73 -4.51,-18.84 -13.53,-24.32 -8.96,-5.48 -22.27,-8.22 -39.85,-8.22 -10.68,0 -18.04,0.8 -22.09,2.34 -4.05,1.6 -6.62,4.68 -7.77,9.31l-5.48 0 0 -56.18 5.48 0c1.31,4.96 3.82,8.22 7.42,9.76 3.6,1.48 10.73,2.23 21.3,2.23 16.44,0 29.06,-2.91 37.85,-8.74 7.71,-4.96 11.53,-12.1 11.53,-21.41 0,-9.54 -4.28,-16.9 -12.9,-22.04 -8.56,-5.19 -20.84,-7.76 -36.82,-7.76 -22.55,0 -42.3,4.96 -59.43,14.9 -8.22,4.91 -12.33,9.99 -12.33,15.36 0,2.12 0.69,4.63 2.17,7.54l-4.22 3.37 -38.48 -47.15 4.17 -3.26c4.11,1.89 7.19,2.85 9.19,2.85 2.23,0 5.25,-1.31 9.08,-3.88 27.97,-18.96 59.26,-28.43 93.8,-28.43 24.09,0 44.42,4.74 60.92,14.27 9.48,5.48 16.9,12.56 22.21,21.3 5.48,9.08 8.22,19.18 8.22,30.37 0,20.04 -9.59,35.68 -28.72,46.99z"/>
   <polygon class="fil5" points="672.93,2331.72 665.3,2557.26 286.5,2544.37 289.33,2459.08 599,2469.62 603.71,2329.28 "/>
   <path id="_1_9" class="fil5" d="M691.25 2253.45c-1.77,13.62 -7.41,24.44 -17.01,32.34 -9.61,7.99 -20.54,11.2 -32.72,9.52 -12.54,-1.59 -22.27,-7.68 -29.08,-18.08 -6.82,-10.41 -9.2,-22.61 -7.43,-36.5 1.87,-14.16 7.51,-25.25 16.84,-33.15 9.24,-7.91 20.09,-11.02 32.54,-9.43 12.72,1.68 22.54,7.68 29.45,17.91 6.91,10.23 9.39,22.7 7.42,37.41z"/>
   <path id="_2_10" class="fil5" d="M790.1 1830.38l-26.57 94.41 -109.88 30.25c-8.3,2.19 -15.79,4.47 -22.55,6.83 -6.67,2.28 -12.53,4.91 -17.67,7.72 -5.14,2.9 -9.37,6.16 -12.7,9.87 -3.33,3.8 -5.67,8.14 -7.1,13.29l-6.26 22.13 139.66 39.37 -23.17 82.11 -364.8 -102.89 36.78 -130.18c24.96,-88.54 70.46,-123.5 136.59,-104.8 12.74,3.58 23.95,8.88 33.63,15.8 9.67,6.93 17.82,15.12 24.43,24.77 6.61,9.55 11.7,20.2 15.16,32.1 3.37,11.82 5.12,24.45 5.24,37.82l0.99 0.36c3.24,-4.98 7.47,-9.5 12.7,-13.49 5.23,-3.99 11.08,-7.7 17.48,-10.97 6.49,-3.36 13.25,-6.35 20.29,-8.99 7.03,-2.63 13.89,-5 20.47,-7l127.28 -38.51zm-366.26 138.33l101.45 28.63 10.02 -35.59c5.01,-17.71 3.88,-33.23 -3.28,-46.85 -7.26,-13.7 -18.57,-22.79 -33.83,-27.09 -31.8,-8.95 -53.15,5.64 -63.89,43.76l-10.47 37.13z"/>
   <path id="_3_11" class="fil5" d="M832.78 1773.87c-5.76,12.42 -14.39,21.13 -25.88,25.85 -11.49,4.81 -22.86,4.66 -34.12,-0.55 -11.52,-5.3 -18.96,-13.92 -22.33,-25.85 -3.45,-11.94 -2.21,-24.3 3.64,-37.17 6.03,-12.96 14.57,-21.85 25.88,-26.67 11.22,-4.81 22.5,-4.56 33.85,0.65 11.71,5.39 19.33,14.01 22.87,25.86 3.55,11.76 2.3,24.39 -3.92,37.9z"/>
   <path id="_4_12" class="fil5" d="M874.36 1664.83l-320.15 -202.86 71.92 -113.45c72,-113.72 160.06,-137.62 264.18,-71.7 49.84,31.66 79.78,72.38 89.92,122.25 10.13,49.95 -1.22,100.66 -33.95,152.31l-71.92 113.45zm-215.72 -237.78l202.98 128.62 22.63 -35.79c19.77,-31.26 26,-61.72 18.51,-91.38 -7.49,-29.66 -27.4,-54.72 -59.75,-75.21 -30.45,-19.32 -60.01,-25.73 -88.67,-19.16 -28.67,6.58 -53.11,25.77 -73.33,57.67l-22.36 35.25z"/>
   <path id="_5_13" class="fil5" d="M1113.45 1342.33c-9.01,10.4 -19.65,16.28 -32.02,17.66 -12.46,1.37 -23.29,-1.95 -32.61,-10.06 -9.58,-8.29 -14.29,-18.66 -14.31,-31.12 0.07,-12.46 4.74,-23.93 13.93,-34.6 9.37,-10.76 20.1,-16.92 32.2,-18.38 12.18,-1.55 22.93,1.85 32.43,10.06 9.67,8.37 14.57,18.75 14.77,31.12 0.11,12.36 -4.65,24.11 -14.39,35.32z"/>
   <path id="_6_14" class="fil5" d="M1287.72 989.33l76.51 105.97 -69.24 49.97 -221.97 -307.5 108.49 -78.34c77.5,-55.9 139.83,-51.21 186.98,14.17 22.25,30.8 29.17,63.79 20.76,98.97 -8.51,35.09 -31.3,66.13 -68.48,92.94l-33.05 23.81zm-107.06 -148.36l69.22 95.82 27.21 -19.61c36.91,-26.63 43.65,-56.11 20.39,-88.44 -22.8,-31.61 -52.7,-34.1 -89.52,-7.48l-27.3 19.7z"/>
   <path id="_7_15" class="fil5" d="M1779.44 679.52c47.45,103.55 22.95,177.36 -73.48,221.6 -93.55,42.88 -163.5,13.75 -209.85,-87.36l-91.23 -198.9 77.88 -35.75 91.69 199.98c25.5,55.73 60.09,73.59 103.67,53.66 42.77,-19.65 51.86,-56.35 27.18,-110.2l-92.97 -202.77 77.62 -35.65 89.5 195.39z"/>
   <path id="_8" class="fil5" d="M1929 803.47l-84.56 -369.41 134.42 -30.77c41.25,-9.48 74.66,-9.11 100.29,0.91 25.64,10.02 41.53,28.8 47.85,56.25 4.6,19.95 1.8,38.91 -8.22,56.96 -10.11,17.97 -24.92,32.32 -44.51,42.97l0.18 0.99c27.08,-2.7 50.28,2.17 69.69,14.73 19.41,12.55 31.77,30.42 37.01,53.62 7.76,33.76 1.8,63.38 -17.88,88.74 -19.59,25.46 -50.47,42.88 -92.35,52.53l-141.92 32.49zm12.66 -327.16l20.03 87.57 36.56 -8.39c17.25,-3.88 29.79,-11.19 37.74,-21.75 7.94,-10.56 10.29,-23.2 6.95,-37.82 -6.22,-27.08 -29.61,-36.02 -70.14,-26.72l-31.14 7.13zm34.2 149.41l22.29 97.41 45.14 -10.38c19.23,-4.42 33.22,-12.27 42.07,-23.74 8.85,-11.37 11.56,-24.83 8.04,-40.35 -3.43,-14.71 -11.46,-25.1 -24.1,-31.06 -12.64,-5.96 -28.62,-6.77 -47.85,-2.35l-45.59 10.47z"/>
   <polygon id="_9" class="fil5" points="2497.5,728.6 2271.95,735.87 2259.68,357.07 2345.07,354.33 2355.07,663.91 2495.33,659.38 "/>
   <polygon id="_10" class="fil5" points="2633.72,747.92 2548.72,740.9 2580.09,363.28 2665.09,370.39 "/>
   <path id="_11" class="fil5" d="M2987.22 800.47c-29.98,6.77 -66.71,5.24 -110.14,-4.78 -56.69,-13.09 -97.41,-40.07 -122.15,-80.88 -24.83,-40.8 -30.79,-88.92 -17.98,-144.44 13.62,-59.04 42.96,-102.74 87.92,-131.09 44.95,-28.35 96.59,-35.76 154.82,-22.31 36.02,8.3 65.36,19.86 88.02,34.66l-18.5 80.07c-21.3,-20.4 -47.75,-34.3 -79.35,-41.61 -34.76,-8.04 -65.18,-3.52 -91.54,13.37 -26.36,16.88 -43.78,43.97 -52.44,81.25 -8.21,35.66 -4.69,66.44 10.48,92.35 15.16,25.82 39.81,42.7 73.76,50.46 32.5,7.49 64.01,6.5 94.61,-3.07l-17.51 76.01z"/>
   <path id="_12" class="fil5" d="M3172.55 877.11l38.8 -75.21c7.72,18.52 18.07,34.7 31.14,48.72 12.97,13.93 27.66,25.16 43.98,33.5 9.56,4.98 18.31,8.43 26.34,10.34 8.03,2 15.16,2.65 21.48,2.12 6.41,-0.62 11.83,-2.41 16.36,-5.29 4.43,-2.97 7.96,-6.84 10.5,-11.72 3.35,-6.58 4.54,-13.44 3.38,-20.48 -1.07,-7.14 -3.67,-14.54 -7.99,-22.31 -4.23,-7.77 -9.72,-15.91 -16.56,-24.59 -6.84,-8.68 -14.31,-17.82 -22.42,-27.4 -20.62,-24.6 -33.39,-48.1 -38.13,-70.59 -4.74,-22.49 -1.35,-44.87 10.25,-67.32 9.07,-17.5 20.38,-30.74 33.94,-39.74 13.56,-9 28.47,-14.39 44.81,-16.25 16.34,-1.86 33.5,-0.56 51.45,3.81 17.96,4.46 35.91,11.27 53.67,20.43 17.59,9.06 32.56,18.21 44.99,27.26 12.53,9.14 23.25,18.83 32.44,29.14l-36.26 70.16c-3.6,-6.78 -8.01,-13.38 -13.05,-19.8 -5.13,-6.42 -10.72,-12.39 -16.75,-18 -6.03,-5.61 -12.35,-10.68 -18.83,-15.21 -6.4,-4.53 -12.8,-8.43 -19.12,-11.69 -8.56,-4.44 -16.86,-7.71 -24.71,-9.71 -7.94,-1.91 -15.07,-2.74 -21.48,-2.21 -6.32,0.43 -11.92,2.05 -16.71,4.83 -4.88,2.79 -8.59,6.75 -11.22,11.9 -2.99,5.68 -4.08,11.46 -3.37,17.42 0.62,6.05 2.68,12.46 6.1,19.24 3.42,6.87 8.09,14.19 13.95,22.06 5.85,7.87 12.6,16.46 20.35,25.59 10.53,12.57 19.54,24.87 27,36.71 7.47,11.93 12.95,23.77 16.53,35.78 3.5,11.93 4.74,24.12 3.45,36.48 -1.2,12.36 -5.29,25.27 -12.36,38.97 -9.7,18.76 -21.46,32.73 -35.11,41.72 -13.74,9.09 -28.74,14.47 -45.08,16.06 -16.25,1.59 -33.4,-0.07 -51.36,-4.98 -18.04,-4.91 -35.99,-12.08 -54.03,-21.33 -18.49,-9.61 -35.26,-20.21 -50.31,-31.97 -15.05,-11.77 -27.03,-23.89 -36.03,-36.46z"/>
   <path id="_13" class="fil5" d="M3669.26 1203.85c-30.04,-6.68 -62.49,-23.83 -97.44,-51.46 -45.58,-36.15 -70.82,-77.84 -75.66,-125.34 -4.92,-47.41 10.29,-93.5 45.62,-138.08 37.6,-47.47 82.72,-74.43 135.46,-80.69 52.74,-6.35 102.53,8.96 149.37,46.02 29,23.01 50.51,46 64.62,69.06l-51.01 64.4c-10.49,-27.56 -28.38,-51.45 -53.79,-71.57 -27.92,-22.1 -57.42,-31.13 -88.39,-27.15 -30.98,3.97 -58.38,20.96 -82.12,50.95 -22.74,28.73 -32.75,57.95 -30.13,87.84 2.71,29.8 17.72,55.57 45.01,77.22 26.12,20.66 55.06,33.2 86.83,37.62l-48.38 61.16z"/>
   <polygon id="_14" class="fil5" points="3916.78,1516.19 3863.78,1448.99 3984.94,1353.5 3887.73,1230.27 3766.57,1325.76 3713.76,1258.84 4011.2,1024.19 4064.11,1091.21 3945.38,1184.8 4042.59,1308.02 4161.22,1214.44 4214.22,1281.64 "/>
   <path id="_15" class="fil5" d="M4032.09 1733.85c-24.84,-48.24 -29.36,-95.72 -13.57,-142.25 15.79,-46.61 48.93,-82.88 99.43,-108.81 53.3,-27.47 104.29,-34.17 153.15,-20.28 48.78,13.98 86.31,46.4 112.51,97.35 24.75,48.15 29,95.18 12.76,141.07 -16.24,45.89 -50.11,82.17 -101.69,108.64 -52.94,27.28 -103.65,33.89 -151.89,19.73 -48.33,-14.07 -85.23,-45.95 -110.7,-95.46zm285.06 -142.43c-13.69,-26.69 -34.57,-42.71 -62.66,-48.07 -28,-5.45 -58.5,0.39 -91.41,17.26 -33.46,17.22 -55.8,38.67 -67.21,64.33 -11.32,25.66 -10.45,51.21 2.6,76.64 13.41,26.15 33.58,42 60.32,47.72 26.82,5.63 56.96,-0.21 90.51,-17.43 34.99,-18.04 58.32,-39.4 70.1,-64.33 11.77,-24.85 11.09,-50.22 -2.24,-76.1z"/>
   <path id="_16" class="fil5" d="M4161.68 2123.39c-12.09,-52.9 -4.78,-100.03 22.04,-141.19 26.81,-41.16 67.89,-68.15 123.14,-80.79 58.41,-13.36 109.5,-7.3 153.28,18.34 43.88,25.55 72.13,66.27 84.94,122.06 12,52.72 4.51,99.3 -22.49,139.74 -27.09,40.45 -68.89,67.16 -125.4,80.07 -58.05,13.26 -108.7,7.12 -151.94,-18.43 -43.33,-25.65 -71.13,-65.55 -83.59,-119.8zm311.19 -67.5c-6.68,-29.16 -22.93,-49.83 -48.75,-62.02 -25.82,-12.19 -56.78,-14.09 -92.8,-5.88 -36.57,8.39 -63.56,23.56 -80.9,45.67 -17.42,22.03 -22.93,46.94 -16.53,74.75 6.59,28.71 22.12,49.11 46.67,61.21 24.56,12.1 55.16,13.91 91.99,5.51 38.28,-8.75 66.17,-23.74 83.78,-44.95 17.52,-21.21 23.02,-45.95 16.52,-74.3z"/>
   <polygon id="_17" class="fil5" points="4217.16,2593.22 4209.89,2367.67 4588.69,2355.4 4591.43,2440.79 4281.86,2450.79 4286.38,2591.05 "/>
  </g>
 </g>
</svg>
